<?xml version="1.0" standalone="no"?>
<!DOCTYPE svg PUBLIC "-//W3C//DTD SVG 20010904//EN"
 "http://www.w3.org/TR/2001/REC-SVG-20010904/DTD/svg10.dtd">
<svg version="1.0" xmlns="http://www.w3.org/2000/svg"
 width="700.000000pt" height="700.000000pt" viewBox="0 0 700.000000 700.000000"
 preserveAspectRatio="xMidYMid meet">
<metadata>
Created by potrace 1.14, written by Peter Selinger 2001-2017
</metadata>
<g transform="translate(0.000000,700.000000) scale(0.100000,-0.100000)"
fill="#000000" stroke="none">
<path d="M5075 6989 c-824 -86 -1475 -735 -1563 -1559 l-8 -75 -8 60 c-102
838 -714 1462 -1536 1564 -54 7 -426 11 -1022 11 l-938 0 0 -899 c0 -1049 3
-1099 81 -1356 89 -288 238 -528 468 -747 287 -275 678 -450 1066 -476 l100
-7 -125 -13 c-238 -24 -434 -82 -639 -188 -486 -251 -818 -699 -923 -1247 -21
-109 -22 -141 -25 -1084 l-4 -973 898 0 c544 0 941 4 1007 10 214 21 394 70
583 160 583 278 956 825 1002 1470 7 94 8 103 10 46 6 -310 130 -670 327 -948
79 -111 287 -317 404 -400 197 -140 465 -252 713 -300 109 -21 140 -22 1085
-25 l972 -4 0 899 c0 532 -4 942 -10 1003 -47 485 -276 908 -655 1211 -245
195 -595 341 -881 365 -41 3 -74 9 -74 12 0 4 46 12 103 19 374 44 741 231
1017 519 238 247 389 535 462 879 23 109 23 111 26 1097 l3 987 -918 -1 c-505
-1 -954 -5 -998 -10z m-1539 -2079 c33 -179 124 -414 224 -575 179 -292 426
-513 743 -665 178 -86 446 -160 579 -160 67 0 41 -17 -36 -23 -159 -14 -374
-75 -549 -156 -400 -185 -749 -568 -896 -984 -59 -168 -99 -367 -102 -517 -2
-56 -3 -51 -10 40 -34 414 -198 789 -471 1075 -155 163 -278 258 -459 354
-210 111 -434 175 -689 197 l-95 8 111 8 c691 45 1304 522 1527 1189 34 100
67 254 83 384 l8 60 8 -75 c4 -41 15 -113 24 -160z"/>
</g>
</svg>
