<svg width="56" height="56" fill="none" xmlns="http://www.w3.org/2000/svg"><path d="M24.687 40a1.09 1.09 0 1 0 0-2.182 1.09 1.09 0 0 0 0 2.182ZM37.288 40a1.09 1.09 0 1 0 0-2.182 1.09 1.09 0 0 0 0 2.182Z" fill="#fff" stroke="#fff" stroke-width="2" stroke-linecap="round" stroke-linejoin="round"/><path d="M15.781 16h.338a4 4 0 0 1 3.943 3.324l2.04 11.898a4 4 0 0 0 3.943 3.323h12.334" stroke="#fff" stroke-width="2" stroke-linecap="round" stroke-linejoin="round"/><path d="M22.557 30.182h15.391a.466.466 0 0 0 .313-.124.558.558 0 0 0 .171-.315l1.777-9.818a.6.6 0 0 0-.102-.453.505.505 0 0 0-.17-.147.455.455 0 0 0-.212-.052H20.582" stroke="#fff" stroke-width="2" stroke-linecap="round" stroke-linejoin="round"/><path d="M34 17a9 9 0 1 1 18 0 9 9 0 0 1-18 0Z" fill="#FC5468"/><path d="M43.005 21.132c-.704 0-1.258-.315-1.66-.946-.397-.638-.595-1.544-.595-2.717 0-1.18.198-2.079.594-2.695.403-.616.957-.924 1.661-.924.697 0 1.243.308 1.64.924.402.616.604 1.514.604 2.695 0 1.173-.202 2.079-.605 2.717-.396.63-.942.946-1.639.946Zm0-.726c.41 0 .74-.231.99-.693.25-.47.374-1.217.374-2.244 0-1.027-.125-1.764-.374-2.211-.25-.455-.58-.682-.99-.682-.41 0-.744.227-1 .682-.25.447-.375 1.184-.375 2.211s.125 1.775.374 2.244c.257.462.59.693 1.001.693Z" fill="#fff"/></svg>