<svg width="135" height="44" fill="none" xmlns="http://www.w3.org/2000/svg"><g clip-path="url(#a)"><path d="M9.986 21.986C4.474 21.986 0 26.469 0 31.993V42h9.986c5.511 0 9.985-4.484 9.985-10.007 0-5.524-4.473-10.007-9.985-10.007ZM29.985 22.014c5.512 0 9.986-4.483 9.986-10.007V2h-9.986C24.474 2 20 6.484 20 12.007c0 5.524 4.474 10.007 9.985 10.007Z" fill="#57D9A6"/><path d="M20.029 12.007c0-5.507-4.487-9.978-10.015-9.978H0v9.978c0 5.508 4.487 9.979 10.014 9.979 5.528 0 10.015-4.471 10.015-9.979ZM19.971 31.964c0 5.508 4.487 9.979 10.015 9.979H40v-9.979c0-5.508-4.487-9.978-10.014-9.978-5.528 0-10.015 4.47-10.015 9.978Z" fill="#57D9A6"/><path d="M65.384 34.408c-1.45 0-2.901-.26-4.352-.782a11.585 11.585 0 0 1-3.842-2.414l2.856-3.434c.793.68 1.666 1.235 2.618 1.666.975.43 1.927.646 2.856.646 1.043 0 1.813-.193 2.312-.578.521-.385.782-.907.782-1.564 0-.34-.08-.635-.238-.884-.136-.25-.351-.465-.646-.646a4.286 4.286 0 0 0-1.02-.544 40.83 40.83 0 0 0-1.292-.578l-2.89-1.224a9.088 9.088 0 0 1-1.666-.884 8.358 8.358 0 0 1-1.428-1.258 6.302 6.302 0 0 1-.986-1.7c-.25-.657-.374-1.394-.374-2.21 0-.907.193-1.757.578-2.55a6.151 6.151 0 0 1 1.632-2.108 7.654 7.654 0 0 1 2.482-1.428c.975-.34 2.04-.51 3.196-.51 1.292 0 2.561.25 3.808.748a9.65 9.65 0 0 1 3.332 2.176l-2.55 3.162c-.725-.567-1.45-.997-2.176-1.292-.725-.317-1.53-.476-2.414-.476-.861 0-1.553.181-2.074.544-.499.34-.748.827-.748 1.462 0 .34.08.635.238.884.181.227.42.442.714.646.317.181.68.363 1.088.544.408.159.85.34 1.326.544l2.856 1.156c1.36.544 2.425 1.292 3.196 2.244.793.952 1.19 2.21 1.19 3.774a6.28 6.28 0 0 1-.578 2.652c-.363.816-.907 1.541-1.632 2.176-.703.612-1.575 1.11-2.618 1.496-1.043.363-2.221.544-3.536.544ZM76.423 34V10.166h4.862v13.668h.136l5.338-6.698h5.44l-5.916 6.936L92.64 34h-5.406l-3.808-6.562-2.142 2.414V34h-4.862Zm17.947 0V17.136h4.998V34H94.37Zm2.481-19.346c-.838 0-1.53-.238-2.073-.714-.544-.499-.817-1.133-.817-1.904 0-.77.273-1.394.817-1.87.543-.476 1.235-.714 2.073-.714.862 0 1.553.238 2.075.714.543.476.816 1.1.816 1.87s-.273 1.405-.817 1.904c-.52.476-1.212.714-2.073.714Zm10.825 19.754c-.861 0-1.587-.136-2.176-.408a3.719 3.719 0 0 1-1.428-1.122c-.34-.499-.589-1.088-.748-1.768a10.651 10.651 0 0 1-.238-2.346V10.166h4.998v18.802c0 .521.091.884.272 1.088.204.204.408.306.612.306h.272c.091 0 .204-.023.34-.068l.612 3.706a4.695 4.695 0 0 1-1.054.272c-.408.09-.895.136-1.462.136Zm9.049 0c-.862 0-1.587-.136-2.176-.408a3.704 3.704 0 0 1-1.428-1.122c-.34-.499-.59-1.088-.748-1.768a10.651 10.651 0 0 1-.238-2.346V10.166h4.998v18.802c0 .521.09.884.272 1.088.204.204.408.306.612.306h.272c.09 0 .204-.023.34-.068l.612 3.706a4.71 4.71 0 0 1-1.054.272c-.408.09-.896.136-1.462.136Zm3.54-.408v-2.686l7.072-10.268h-6.29v-3.91h12.512v2.652l-7.072 10.302h7.31V34h-13.532Z" fill="#fff"/></g><defs><clipPath id="a"><path fill="#fff" d="M0 0h135v44H0z"/></clipPath></defs></svg>