<svg width="1022" height="34" fill="none" xmlns="http://www.w3.org/2000/svg"><path d="m439 3.001 3.592 11.056h11.625l-9.405 6.833 3.593 11.055L439 25.113l-9.405 6.832 3.593-11.055-9.405-6.833h11.625L439 3ZM511 3.001l3.592 11.056h11.625l-9.405 6.833 3.593 11.055L511 25.113l-9.405 6.832 3.593-11.055-9.405-6.833h11.625L511 3ZM583 3.001l3.592 11.056h11.625l-9.405 6.833 3.593 11.055L583 25.113l-9.405 6.832 3.593-11.055-9.405-6.833h11.625L583 3ZM475 3.001l3.592 11.056h11.625l-9.405 6.833 3.593 11.055L475 25.113l-9.405 6.832 3.593-11.055-9.405-6.833h11.625L475 3ZM547 3.001l3.592 11.056h11.625l-9.405 6.833 3.593 11.055L547 25.113l-9.405 6.832 3.593-11.055-9.405-6.833h11.625L547 3Z" fill="#1C1C33"/></svg>