<svg width="48" height="48" fill="none" xmlns="http://www.w3.org/2000/svg"><path d="M0 24C0 10.745 10.745 0 24 0s24 10.745 24 24-10.745 24-24 24S0 37.255 0 24Z" fill="#F6F6F8"/><g clip-path="url(#a)"><path d="M35.954 16.57a9.999 9.999 0 0 1-2.825.774 4.958 4.958 0 0 0 2.163-2.723c-.951.555-2.005.96-3.127 1.184a4.92 4.92 0 0 0-8.384 4.482c-4.09-.193-7.715-2.157-10.141-5.126a4.822 4.822 0 0 0-.666 2.475c0 1.71.87 3.213 2.188 4.096a4.904 4.904 0 0 1-2.228-.616v.061a4.923 4.923 0 0 0 3.946 4.827 4.996 4.996 0 0 1-2.212.085 4.937 4.937 0 0 0 4.604 3.417 9.869 9.869 0 0 1-6.102 2.105c-.39 0-.779-.023-1.17-.067a13.995 13.995 0 0 0 7.557 2.209c9.054 0 13.999-7.496 13.999-13.986 0-.209 0-.42-.015-.63.96-.689 1.8-1.56 2.46-2.548l-.047-.02Z" fill="#1C1C33"/></g><defs><clipPath id="a"><path fill="#fff" transform="translate(12 12)" d="M0 0h24v24H0z"/></clipPath></defs></svg>