<svg width="48" height="48" fill="none" xmlns="http://www.w3.org/2000/svg"><path d="M0 24C0 10.745 10.745 0 24 0s24 10.745 24 24-10.745 24-24 24S0 37.255 0 24Z" fill="#F6F6F8"/><path d="M35.496 18.205a3.008 3.008 0 0 0-2.088-2.088c-1.87-.5-9.396-.5-9.396-.5s-7.506-.01-9.396.5a3.007 3.007 0 0 0-2.088 2.088 31.257 31.257 0 0 0-.522 5.805c-.005 1.94.17 3.876.522 5.783a3.008 3.008 0 0 0 2.088 2.088c1.868.502 9.396.502 9.396.502s7.506 0 9.396-.502a3.008 3.008 0 0 0 2.088-2.088c.346-1.908.514-3.844.5-5.783a31.256 31.256 0 0 0-.5-5.805ZM21.61 27.601v-7.193l6.264 3.602-6.264 3.591Z" fill="#1C1C33"/></svg>